<svg width="25" height="25" viewBox="0 0 25 25" fill="none" xmlns="http://www.w3.org/2000/svg">
<path fill-rule="evenodd" clip-rule="evenodd" d="M10.6097 2.12453C5.95423 2.12453 2.18019 5.89857 2.18019 10.5541C2.18019 15.2096 5.95423 18.9836 10.6097 18.9836C15.2653 18.9836 19.0393 15.2096 19.0393 10.5541C19.0393 5.89856 15.2653 2.12453 10.6097 2.12453ZM0.123047 10.5541C0.123047 4.76244 4.8181 0.0673828 10.6097 0.0673828C16.4014 0.0673828 21.0964 4.76244 21.0964 10.5541C21.0964 13.0795 20.2038 15.3964 18.7167 17.2065L23.8218 22.3115C24.2235 22.7132 24.2235 23.3644 23.8218 23.7661C23.4201 24.1678 22.7688 24.1678 22.3672 23.7661L17.2621 18.6611C15.4521 20.1481 13.1352 21.0408 10.6097 21.0408C4.8181 21.0408 0.123047 16.3458 0.123047 10.5541Z" fill="white"/>
</svg>
